<svg id="Layer_1" data-name="Layer 1" xmlns="http://www.w3.org/2000/svg" viewBox="0 0 64 64"><defs><style>.cls-1{fill:#fff;}</style></defs><title>video_play</title><path class="cls-1" d="M32.5,2.469A30.031,30.031,0,1,1,2.469,32.5,30.031,30.031,0,0,1,32.5,2.469M32.5.5a32,32,0,1,0,32,32A32,32,0,0,0,32.5.5Z" transform="translate(-0.5 -0.5)"/><path class="cls-1" d="M41.649,31.855,29.387,24.776a.744.744,0,0,0-1.117.645v14.16a.744.744,0,0,0,1.117.645l12.262-7.08a.744.744,0,0,0,0-1.29Z" transform="translate(-0.5 -0.5)"/></svg>